<?xml version="1.0" standalone="no"?>
<!DOCTYPE svg PUBLIC "-//W3C//DTD SVG 20010904//EN"
 "http://www.w3.org/TR/2001/REC-SVG-20010904/DTD/svg10.dtd">
<svg version="1.0" xmlns="http://www.w3.org/2000/svg"
 width="512.000000pt" height="512.000000pt" viewBox="0 0 512.000000 512.000000"
 preserveAspectRatio="xMidYMid meet">
<metadata>
Created by potrace 1.14, written by Peter Selinger 2001-2017
</metadata>
<g transform="translate(0.000000,512.000000) scale(0.100000,-0.100000)"
fill="#000000" stroke="none">
<path d="M320 5113 c-94 -18 -211 -104 -263 -194 -61 -104 -57 64 -54 -2379
l2 -2235 31 -66 c35 -73 111 -157 171 -187 107 -55 -42 -52 2353 -52 2141 0
2210 0 2269 19 123 38 216 123 263 239 l23 57 0 2250 0 2250 -34 69 c-43 89
-113 159 -199 199 l-67 32 -2235 1 c-1229 1 -2246 -1 -2260 -3z m2305 -1227
c399 -88 680 -297 848 -631 59 -118 93 -226 133 -420 13 -62 12 -459 -1 -545
-11 -74 -18 -103 -39 -190 -14 -53 -55 -158 -92 -233 -147 -300 -414 -516
-755 -611 -30 -9 -73 -18 -94 -22 -20 -3 -47 -8 -59 -11 -11 -4 -256 -8 -543
-9 l-523 -3 0 1349 1 1350 522 -3 c454 -3 532 -6 602 -21z"/>
<path d="M2155 3402 c-3 -3 -5 -385 -5 -848 l0 -843 173 3 c142 3 183 7 239
25 213 68 348 269 384 567 15 130 10 434 -10 571 -18 122 -77 266 -141 344
-72 85 -153 135 -270 166 -57 15 -358 27 -370 15z"/>
</g>
</svg>
